<svg xmlns="http://www.w3.org/2000/svg" xmlns:xlink="http://www.w3.org/1999/xlink" width="500" zoomAndPan="magnify" viewBox="0 0 375 374.999991" height="500" preserveAspectRatio="xMidYMid meet" version="1.2"><defs><clipPath id="fe5f4e6105"><path d="M 60 12.671875 L 315 12.671875 L 315 303.671875 L 60 303.671875 Z M 60 12.671875 "/></clipPath></defs><g id="6293d3d182"><g clip-rule="nonzero" clip-path="url(#fe5f4e6105)"><path style=" stroke:none;fill-rule:nonzero;fill:#ffffff;fill-opacity:1;" d="M 302.890625 225.308594 L 256.558594 225.308594 C 239.355469 225.308594 236.34375 236.382812 236.34375 249.707031 L 236.34375 291.34375 L 84.992188 291.34375 C 77.875 291.34375 72.085938 285.550781 72.085938 278.433594 L 72.085938 95.757812 L 302.890625 95.757812 Z M 105.8125 49.390625 L 130.851562 49.390625 L 130.851562 72.914062 C 130.851562 79.84375 125.25 85.445312 118.320312 85.445312 C 111.414062 85.445312 105.8125 79.84375 105.8125 72.914062 Z M 246.566406 49.390625 L 271.605469 49.390625 L 271.605469 72.914062 C 271.605469 79.84375 266.003906 85.445312 259.09375 85.445312 C 252.167969 85.445312 246.566406 79.84375 246.566406 72.914062 Z M 290 48.5 L 271.605469 48.5 L 271.605469 25.203125 C 271.605469 18.273438 266.003906 12.671875 259.09375 12.671875 C 252.167969 12.671875 246.566406 18.273438 246.566406 25.203125 L 246.566406 48.5 L 130.851562 48.5 L 130.851562 25.203125 C 130.851562 18.273438 125.25 12.671875 118.320312 12.671875 C 111.414062 12.671875 105.8125 18.273438 105.8125 25.203125 L 105.8125 48.5 L 84.992188 48.5 C 71.253906 48.5 60.046875 59.6875 60.046875 73.445312 L 60.046875 278.433594 C 60.046875 292.175781 71.253906 303.378906 84.992188 303.378906 L 236.875 303.378906 L 248.914062 291.34375 L 302.890625 237.347656 L 314.945312 225.308594 L 314.945312 73.445312 C 314.945312 59.6875 303.742188 48.5 290 48.5 "/></g><path style=" stroke:none;fill-rule:nonzero;fill:#ffffff;fill-opacity:1;" d="M 132.269531 121.554688 L 90.992188 121.554688 L 90.992188 162.851562 L 132.269531 162.851562 L 132.269531 121.554688 "/><path style=" stroke:none;fill-rule:nonzero;fill:#ffffff;fill-opacity:1;" d="M 183.03125 121.554688 L 141.734375 121.554688 L 141.734375 162.851562 L 183.03125 162.851562 L 183.03125 121.554688 "/><path style=" stroke:none;fill-rule:nonzero;fill:#ffffff;fill-opacity:1;" d="M 233.773438 121.554688 L 192.476562 121.554688 L 192.476562 162.851562 L 233.773438 162.851562 L 233.773438 121.554688 "/><path style=" stroke:none;fill-rule:nonzero;fill:#ffffff;fill-opacity:1;" d="M 284.511719 121.554688 L 243.234375 121.554688 L 243.234375 162.851562 L 284.511719 162.851562 L 284.511719 121.554688 "/><path style=" stroke:none;fill-rule:nonzero;fill:#ffffff;fill-opacity:1;" d="M 132.269531 172.316406 L 90.992188 172.316406 L 90.992188 213.59375 L 132.269531 213.59375 L 132.269531 172.316406 "/><path style=" stroke:none;fill-rule:nonzero;fill:#ffffff;fill-opacity:1;" d="M 183.03125 172.316406 L 141.734375 172.316406 L 141.734375 213.59375 L 183.03125 213.59375 L 183.03125 172.316406 "/><path style=" stroke:none;fill-rule:nonzero;fill:#ffffff;fill-opacity:1;" d="M 233.773438 172.316406 L 192.476562 172.316406 L 192.476562 213.59375 L 233.773438 213.59375 L 233.773438 172.316406 "/><path style=" stroke:none;fill-rule:nonzero;fill:#ffffff;fill-opacity:1;" d="M 284.511719 172.316406 L 243.234375 172.316406 L 243.234375 213.59375 L 284.511719 213.59375 L 284.511719 172.316406 "/><path style=" stroke:none;fill-rule:nonzero;fill:#ffffff;fill-opacity:1;" d="M 132.269531 223.058594 L 90.992188 223.058594 L 90.992188 264.335938 L 132.269531 264.335938 L 132.269531 223.058594 "/><path style=" stroke:none;fill-rule:nonzero;fill:#ffffff;fill-opacity:1;" d="M 183.03125 223.058594 L 141.734375 223.058594 L 141.734375 264.335938 L 183.03125 264.335938 L 183.03125 223.058594 "/><g style="fill:#ffffff;fill-opacity:1;"><g transform="translate(98.387693, 356.999977)"><path style="stroke:none" d="M 0.203125 0 L 12.21875 -28.34375 L 18.3125 -28.34375 L 30.171875 0 L 24.078125 0 L 21.171875 -6.9375 L 9.0625 -6.9375 L 6.09375 0 Z M 10.921875 -11.90625 L 19.5625 -11.90625 L 15.328125 -22.125 L 15.15625 -22.125 Z M 10.921875 -11.90625 "/></g></g><g style="fill:#ffffff;fill-opacity:1;"><g transform="translate(127.367657, 356.999977)"><path style="stroke:none" d="M 15.546875 0.421875 C 12.785156 0.421875 10.359375 -0.1875 8.265625 -1.40625 C 6.179688 -2.632812 4.550781 -4.34375 3.375 -6.53125 C 2.195312 -8.726562 1.609375 -11.265625 1.609375 -14.140625 C 1.609375 -17.078125 2.210938 -19.640625 3.421875 -21.828125 C 4.640625 -24.023438 6.34375 -25.726562 8.53125 -26.9375 C 10.726562 -28.15625 13.285156 -28.765625 16.203125 -28.765625 C 18.554688 -28.765625 20.628906 -28.363281 22.421875 -27.5625 C 24.222656 -26.757812 25.703125 -25.609375 26.859375 -24.109375 C 28.015625 -22.617188 28.742188 -20.835938 29.046875 -18.765625 L 22.859375 -18.765625 C 22.597656 -20.273438 21.882812 -21.441406 20.71875 -22.265625 C 19.550781 -23.097656 18.046875 -23.515625 16.203125 -23.515625 C 14.453125 -23.515625 12.925781 -23.132812 11.625 -22.375 C 10.332031 -21.625 9.332031 -20.535156 8.625 -19.109375 C 7.914062 -17.679688 7.5625 -16.015625 7.5625 -14.109375 C 7.5625 -12.148438 7.921875 -10.453125 8.640625 -9.015625 C 9.367188 -7.578125 10.382812 -6.46875 11.6875 -5.6875 C 13 -4.90625 14.539062 -4.515625 16.3125 -4.515625 C 17.613281 -4.515625 18.789062 -4.722656 19.84375 -5.140625 C 20.894531 -5.566406 21.722656 -6.148438 22.328125 -6.890625 C 22.929688 -7.640625 23.234375 -8.484375 23.234375 -9.421875 L 23.234375 -10.5 L 15.78125 -10.5 L 15.78125 -15.078125 L 24.671875 -15.078125 C 26.117188 -15.078125 27.207031 -14.726562 27.9375 -14.03125 C 28.675781 -13.332031 29.046875 -12.296875 29.046875 -10.921875 L 29.046875 0 L 23.59375 0 L 23.59375 -3.296875 L 23.421875 -3.296875 C 22.765625 -2.078125 21.757812 -1.148438 20.40625 -0.515625 C 19.050781 0.109375 17.429688 0.421875 15.546875 0.421875 Z M 15.546875 0.421875 "/></g></g><g style="fill:#ffffff;fill-opacity:1;"><g transform="translate(158.657621, 356.999977)"><path style="stroke:none" d="M 23.65625 0 L 2.96875 0 L 2.96875 -28.34375 L 23.65625 -28.34375 L 23.65625 -23.171875 L 8.890625 -23.171875 L 8.890625 -17.21875 L 22.5 -17.21875 L 22.5 -12.1875 L 8.890625 -12.1875 L 8.890625 -5.1875 L 23.65625 -5.1875 Z M 23.65625 0 "/></g></g><g style="fill:#ffffff;fill-opacity:1;"><g transform="translate(184.0676, 356.999977)"><path style="stroke:none" d="M 29.859375 0 L 23.515625 0 L 8.78125 -19.671875 L 8.640625 -19.671875 L 8.640625 0 L 2.96875 0 L 2.96875 -28.34375 L 9.09375 -28.34375 L 24.046875 -8.265625 L 24.1875 -8.265625 L 24.1875 -28.34375 L 29.859375 -28.34375 Z M 29.859375 0 "/></g></g><g style="fill:#ffffff;fill-opacity:1;"><g transform="translate(216.897561, 356.999977)"><path style="stroke:none" d="M 2.96875 0 L 2.96875 -28.34375 L 14.140625 -28.34375 C 17.222656 -28.34375 19.882812 -27.769531 22.125 -26.625 C 24.363281 -25.488281 26.085938 -23.859375 27.296875 -21.734375 C 28.515625 -19.609375 29.125 -17.085938 29.125 -14.171875 C 29.125 -11.273438 28.507812 -8.765625 27.28125 -6.640625 C 26.050781 -4.523438 24.316406 -2.890625 22.078125 -1.734375 C 19.835938 -0.578125 17.191406 0 14.140625 0 Z M 8.890625 -5.046875 L 14.140625 -5.046875 C 17.078125 -5.046875 19.3125 -5.878906 20.84375 -7.546875 C 22.375 -9.210938 23.140625 -11.421875 23.140625 -14.171875 C 23.140625 -16.953125 22.375 -19.171875 20.84375 -20.828125 C 19.3125 -22.484375 17.078125 -23.3125 14.140625 -23.3125 L 8.890625 -23.3125 Z M 8.890625 -5.046875 "/></g></g><g style="fill:#ffffff;fill-opacity:1;"><g transform="translate(246.227531, 356.999977)"><path style="stroke:none" d="M 0.203125 0 L 12.21875 -28.34375 L 18.3125 -28.34375 L 30.171875 0 L 24.078125 0 L 21.171875 -6.9375 L 9.0625 -6.9375 L 6.09375 0 Z M 10.921875 -11.90625 L 19.5625 -11.90625 L 15.328125 -22.125 L 15.15625 -22.125 Z M 10.921875 -11.90625 "/></g></g></g></svg>