<svg xmlns="http://www.w3.org/2000/svg" xmlns:xlink="http://www.w3.org/1999/xlink" width="500" zoomAndPan="magnify" viewBox="0 0 375 374.999991" height="500" preserveAspectRatio="xMidYMid meet" version="1.2"><defs><clipPath id="217b56cd7c"><path d="M 30.566406 32.230469 L 341.816406 32.230469 L 341.816406 343.480469 L 30.566406 343.480469 Z M 30.566406 32.230469 "/></clipPath></defs><g id="33ed85dbbe"><path style=" stroke:none;fill-rule:nonzero;fill:#ffffff;fill-opacity:1;" d="M 221.078125 118.988281 C 223.96875 116.09375 223.96875 111.402344 221.078125 108.507812 C 218.183594 105.613281 213.488281 105.613281 210.59375 108.507812 L 136.488281 182.617188 C 133.59375 185.511719 133.59375 190.203125 136.488281 193.097656 L 210.59375 267.203125 C 213.488281 270.097656 218.183594 270.097656 221.078125 267.203125 C 223.96875 264.308594 223.96875 259.617188 221.078125 256.722656 L 152.210938 187.855469 Z M 221.078125 118.988281 "/><g clip-rule="nonzero" clip-path="url(#217b56cd7c)"><path style=" stroke:none;fill-rule:evenodd;fill:#ffffff;fill-opacity:1;" d="M 186.191406 32.230469 C 100.242188 32.230469 30.566406 101.90625 30.566406 187.855469 C 30.566406 273.804688 100.242188 343.480469 186.191406 343.480469 C 272.144531 343.480469 341.816406 273.804688 341.816406 187.855469 C 341.816406 101.90625 272.144531 32.230469 186.191406 32.230469 Z M 45.390625 187.855469 C 45.390625 110.09375 108.429688 47.054688 186.191406 47.054688 C 263.957031 47.054688 326.996094 110.09375 326.996094 187.855469 C 326.996094 265.621094 263.957031 328.660156 186.191406 328.660156 C 108.429688 328.660156 45.390625 265.621094 45.390625 187.855469 Z M 45.390625 187.855469 "/></g></g></svg>