<svg xmlns="http://www.w3.org/2000/svg" xmlns:xlink="http://www.w3.org/1999/xlink" width="500" zoomAndPan="magnify" viewBox="0 0 375 374.999991" height="500" preserveAspectRatio="xMidYMid meet" version="1.2"><defs><clipPath id="aa2787a919"><path d="M 50.527344 19.28125 L 324 19.28125 L 324 293 L 50.527344 293 Z M 50.527344 19.28125 "/></clipPath></defs><g id="3612d04719"><g clip-rule="nonzero" clip-path="url(#aa2787a919)"><path style=" stroke:none;fill-rule:nonzero;fill:#ffffff;fill-opacity:1;" d="M 219.800781 123.21875 C 218.796875 123.785156 217.773438 124.328125 216.78125 124.921875 C 200.953125 134.410156 185.078125 143.816406 169.332031 153.441406 C 164.003906 156.699219 158.625 157.503906 152.632812 155.914062 C 121.175781 147.558594 89.703125 139.25 58.222656 130.988281 C 53.414062 129.71875 50.875 126.851562 50.71875 122.671875 C 50.558594 118.484375 52.878906 115.410156 57.488281 113.722656 C 131.863281 86.46875 206.242188 59.210938 280.621094 31.957031 C 290.808594 28.222656 301.019531 24.546875 311.167969 20.707031 C 314.949219 19.277344 318.375 19.367188 321.289062 22.285156 C 324.207031 25.207031 324.238281 28.632812 322.847656 32.417969 C 299.382812 96.308594 275.945312 160.214844 252.542969 224.132812 C 244.972656 244.785156 237.40625 265.441406 229.839844 286.097656 C 228.15625 290.691406 225.050781 293.019531 220.875 292.847656 C 216.699219 292.675781 213.820312 290.132812 212.554688 285.332031 C 204.269531 253.953125 195.984375 222.578125 187.703125 191.203125 C 186.023438 184.882812 186.910156 179.3125 190.371094 173.703125 C 199.910156 158.253906 209.136719 142.613281 218.484375 127.042969 C 219.132812 125.964844 219.734375 124.867188 220.359375 123.777344 Z M 219.800781 123.21875 "/></g><g style="fill:#ffffff;fill-opacity:1;"><g transform="translate(17.129886, 350.849977)"><path style="stroke:none" d="M 13.703125 0.453125 C 11.222656 0.453125 9.054688 -0.0625 7.203125 -1.09375 C 5.359375 -2.125 3.925781 -3.582031 2.90625 -5.46875 C 1.882812 -7.363281 1.375 -9.570312 1.375 -12.09375 C 1.375 -14.65625 1.882812 -16.875 2.90625 -18.75 C 3.925781 -20.625 5.359375 -22.078125 7.203125 -23.109375 C 9.054688 -24.140625 11.222656 -24.65625 13.703125 -24.65625 C 15.703125 -24.65625 17.476562 -24.3125 19.03125 -23.625 C 20.582031 -22.9375 21.851562 -21.953125 22.84375 -20.671875 C 23.832031 -19.390625 24.457031 -17.859375 24.71875 -16.078125 L 19.4375 -16.078125 C 19.21875 -17.378906 18.597656 -18.382812 17.578125 -19.09375 C 16.554688 -19.800781 15.265625 -20.15625 13.703125 -20.15625 C 11.460938 -20.15625 9.691406 -19.445312 8.390625 -18.03125 C 7.097656 -16.613281 6.453125 -14.632812 6.453125 -12.09375 C 6.453125 -9.570312 7.097656 -7.59375 8.390625 -6.15625 C 9.691406 -4.726562 11.460938 -4.015625 13.703125 -4.015625 C 15.265625 -4.015625 16.554688 -4.375 17.578125 -5.09375 C 18.597656 -5.820312 19.21875 -6.832031 19.4375 -8.125 L 24.71875 -8.125 C 24.457031 -6.34375 23.832031 -4.804688 22.84375 -3.515625 C 21.851562 -2.234375 20.582031 -1.25 19.03125 -0.5625 C 17.476562 0.113281 15.703125 0.453125 13.703125 0.453125 Z M 13.703125 0.453125 "/></g></g><g style="fill:#ffffff;fill-opacity:1;"><g transform="translate(42.269865, 350.849977)"><path style="stroke:none" d="M 13.796875 0.359375 C 11.296875 0.359375 9.117188 -0.15625 7.265625 -1.1875 C 5.421875 -2.21875 3.976562 -3.664062 2.9375 -5.53125 C 1.894531 -7.40625 1.375 -9.613281 1.375 -12.15625 C 1.375 -14.707031 1.894531 -16.914062 2.9375 -18.78125 C 3.976562 -20.65625 5.421875 -22.101562 7.265625 -23.125 C 9.117188 -24.144531 11.296875 -24.65625 13.796875 -24.65625 C 16.316406 -24.65625 18.5 -24.148438 20.34375 -23.140625 C 22.195312 -22.128906 23.640625 -20.6875 24.671875 -18.8125 C 25.703125 -16.945312 26.21875 -14.726562 26.21875 -12.15625 C 26.21875 -9.613281 25.695312 -7.398438 24.65625 -5.515625 C 23.613281 -3.640625 22.164062 -2.191406 20.3125 -1.171875 C 18.46875 -0.148438 16.296875 0.359375 13.796875 0.359375 Z M 13.796875 -4.078125 C 16.117188 -4.078125 17.921875 -4.804688 19.203125 -6.265625 C 20.484375 -7.722656 21.125 -9.6875 21.125 -12.15625 C 21.125 -14.632812 20.488281 -16.597656 19.21875 -18.046875 C 17.945312 -19.492188 16.140625 -20.21875 13.796875 -20.21875 C 11.472656 -20.21875 9.671875 -19.492188 8.390625 -18.046875 C 7.117188 -16.597656 6.484375 -14.632812 6.484375 -12.15625 C 6.484375 -9.6875 7.117188 -7.722656 8.390625 -6.265625 C 9.671875 -4.804688 11.472656 -4.078125 13.796875 -4.078125 Z M 13.796875 -4.078125 "/></g></g><g style="fill:#ffffff;fill-opacity:1;"><g transform="translate(69.869843, 350.849977)"><path style="stroke:none" d="M 25.59375 0 L 20.15625 0 L 7.53125 -16.859375 L 7.40625 -16.859375 L 7.40625 0 L 2.546875 0 L 2.546875 -24.296875 L 7.796875 -24.296875 L 20.609375 -7.078125 L 20.734375 -7.078125 L 20.734375 -24.296875 L 25.59375 -24.296875 Z M 25.59375 0 "/></g></g><g style="fill:#ffffff;fill-opacity:1;"><g transform="translate(98.00981, 350.849977)"><path style="stroke:none" d="M 25.59375 0 L 20.15625 0 L 7.53125 -16.859375 L 7.40625 -16.859375 L 7.40625 0 L 2.546875 0 L 2.546875 -24.296875 L 7.796875 -24.296875 L 20.609375 -7.078125 L 20.734375 -7.078125 L 20.734375 -24.296875 L 25.59375 -24.296875 Z M 25.59375 0 "/></g></g><g style="fill:#ffffff;fill-opacity:1;"><g transform="translate(126.149776, 350.849977)"><path style="stroke:none" d="M 20.28125 0 L 2.546875 0 L 2.546875 -24.296875 L 20.28125 -24.296875 L 20.28125 -19.859375 L 7.625 -19.859375 L 7.625 -14.765625 L 19.296875 -14.765625 L 19.296875 -10.4375 L 7.625 -10.4375 L 7.625 -4.4375 L 20.28125 -4.4375 Z M 20.28125 0 "/></g></g><g style="fill:#ffffff;fill-opacity:1;"><g transform="translate(147.929758, 350.849977)"><path style="stroke:none" d="M 13.703125 0.453125 C 11.222656 0.453125 9.054688 -0.0625 7.203125 -1.09375 C 5.359375 -2.125 3.925781 -3.582031 2.90625 -5.46875 C 1.882812 -7.363281 1.375 -9.570312 1.375 -12.09375 C 1.375 -14.65625 1.882812 -16.875 2.90625 -18.75 C 3.925781 -20.625 5.359375 -22.078125 7.203125 -23.109375 C 9.054688 -24.140625 11.222656 -24.65625 13.703125 -24.65625 C 15.703125 -24.65625 17.476562 -24.3125 19.03125 -23.625 C 20.582031 -22.9375 21.851562 -21.953125 22.84375 -20.671875 C 23.832031 -19.390625 24.457031 -17.859375 24.71875 -16.078125 L 19.4375 -16.078125 C 19.21875 -17.378906 18.597656 -18.382812 17.578125 -19.09375 C 16.554688 -19.800781 15.265625 -20.15625 13.703125 -20.15625 C 11.460938 -20.15625 9.691406 -19.445312 8.390625 -18.03125 C 7.097656 -16.613281 6.453125 -14.632812 6.453125 -12.09375 C 6.453125 -9.570312 7.097656 -7.59375 8.390625 -6.15625 C 9.691406 -4.726562 11.460938 -4.015625 13.703125 -4.015625 C 15.265625 -4.015625 16.554688 -4.375 17.578125 -5.09375 C 18.597656 -5.820312 19.21875 -6.832031 19.4375 -8.125 L 24.71875 -8.125 C 24.457031 -6.34375 23.832031 -4.804688 22.84375 -3.515625 C 21.851562 -2.234375 20.582031 -1.25 19.03125 -0.5625 C 17.476562 0.113281 15.703125 0.453125 13.703125 0.453125 Z M 13.703125 0.453125 "/></g></g><g style="fill:#ffffff;fill-opacity:1;"><g transform="translate(173.069737, 350.849977)"><path style="stroke:none" d="M 13.59375 0 L 8.609375 0 L 8.609375 -19.859375 L 0.71875 -19.859375 L 0.71875 -24.296875 L 21.484375 -24.296875 L 21.484375 -19.859375 L 13.59375 -19.859375 Z M 13.59375 0 "/></g></g><g style="fill:#ffffff;fill-opacity:1;"><g transform="translate(195.269718, 350.849977)"><path style="stroke:none" d=""/></g></g><g style="fill:#ffffff;fill-opacity:1;"><g transform="translate(203.789706, 350.849977)"><path style="stroke:none" d="M 7.765625 0 L 0.84375 -24.296875 L 6.1875 -24.296875 L 10.5625 -7.921875 L 10.703125 -7.921875 L 15.71875 -24.296875 L 20.15625 -24.296875 L 25.46875 -7.921875 L 25.59375 -7.921875 L 29.90625 -24.296875 L 35.28125 -24.296875 L 28.34375 0 L 23.28125 0 L 18 -16.953125 L 17.875 -16.953125 L 12.84375 0 Z M 7.765625 0 "/></g></g><g style="fill:#ffffff;fill-opacity:1;"><g transform="translate(239.909672, 350.849977)"><path style="stroke:none" d="M 2.703125 0 L 2.703125 -24.296875 L 7.796875 -24.296875 L 7.796875 0 Z M 2.703125 0 "/></g><g transform="translate(250.409671, 350.849977)"><path style="stroke:none" d="M 13.59375 0 L 8.609375 0 L 8.609375 -19.859375 L 0.71875 -19.859375 L 0.71875 -24.296875 L 21.484375 -24.296875 L 21.484375 -19.859375 L 13.59375 -19.859375 Z M 13.59375 0 "/></g></g><g style="fill:#ffffff;fill-opacity:1;"><g transform="translate(272.609652, 350.849977)"><path style="stroke:none" d="M 2.546875 0 L 2.546875 -24.296875 L 7.625 -24.296875 L 7.625 -14.8125 L 19.5625 -14.8125 L 19.5625 -24.296875 L 24.625 -24.296875 L 24.625 0 L 19.5625 0 L 19.5625 -10.375 L 7.625 -10.375 L 7.625 0 Z M 2.546875 0 "/></g></g><g style="fill:#ffffff;fill-opacity:1;"><g transform="translate(299.789597, 350.849977)"><path style="stroke:none" d=""/></g></g><g style="fill:#ffffff;fill-opacity:1;"><g transform="translate(308.309586, 350.849977)"><path style="stroke:none" d="M 13.046875 0.359375 C 10.867188 0.359375 8.96875 0.0234375 7.34375 -0.640625 C 5.726562 -1.316406 4.476562 -2.347656 3.59375 -3.734375 C 2.71875 -5.117188 2.28125 -6.894531 2.28125 -9.0625 L 2.28125 -24.296875 L 7.46875 -24.296875 L 7.46875 -9.78125 C 7.46875 -8.082031 7.921875 -6.753906 8.828125 -5.796875 C 9.742188 -4.847656 11.203125 -4.375 13.203125 -4.375 C 15.242188 -4.375 16.707031 -4.875 17.59375 -5.875 C 18.488281 -6.875 18.9375 -8.164062 18.9375 -9.75 L 18.9375 -24.296875 L 24 -24.296875 L 24 -9 C 24 -5.875 23.03125 -3.53125 21.09375 -1.96875 C 19.15625 -0.414062 16.472656 0.359375 13.046875 0.359375 Z M 13.046875 0.359375 "/></g></g><g style="fill:#ffffff;fill-opacity:1;"><g transform="translate(334.589568, 350.849977)"><path style="stroke:none" d="M 12.15625 0.359375 C 8.894531 0.359375 6.289062 -0.351562 4.34375 -1.78125 C 2.40625 -3.21875 1.347656 -5.203125 1.171875 -7.734375 L 6.390625 -7.734375 C 6.566406 -6.421875 7.160156 -5.425781 8.171875 -4.75 C 9.179688 -4.082031 10.578125 -3.75 12.359375 -3.75 C 13.941406 -3.75 15.128906 -4.003906 15.921875 -4.515625 C 16.722656 -5.023438 17.125 -5.78125 17.125 -6.78125 C 17.125 -7.5625 16.867188 -8.179688 16.359375 -8.640625 C 15.847656 -9.097656 15.023438 -9.445312 13.890625 -9.6875 L 8.875 -10.703125 C 6.613281 -11.191406 4.921875 -11.988281 3.796875 -13.09375 C 2.679688 -14.207031 2.125 -15.65625 2.125 -17.4375 C 2.125 -19.6875 2.976562 -21.453125 4.6875 -22.734375 C 6.40625 -24.015625 8.734375 -24.65625 11.671875 -24.65625 C 14.648438 -24.65625 17.046875 -23.984375 18.859375 -22.640625 C 20.679688 -21.304688 21.707031 -19.441406 21.9375 -17.046875 L 16.703125 -17.046875 C 16.128906 -19.484375 14.363281 -20.703125 11.40625 -20.703125 C 10.0625 -20.703125 9.007812 -20.460938 8.25 -19.984375 C 7.488281 -19.503906 7.109375 -18.8125 7.109375 -17.90625 C 7.109375 -16.53125 8.097656 -15.640625 10.078125 -15.234375 L 15.296875 -14.15625 C 17.660156 -13.675781 19.382812 -12.867188 20.46875 -11.734375 C 21.5625 -10.609375 22.109375 -9.085938 22.109375 -7.171875 C 22.109375 -4.785156 21.242188 -2.929688 19.515625 -1.609375 C 17.785156 -0.296875 15.332031 0.359375 12.15625 0.359375 Z M 12.15625 0.359375 "/></g></g></g></svg>