<svg xmlns="http://www.w3.org/2000/svg" xmlns:xlink="http://www.w3.org/1999/xlink" width="500" zoomAndPan="magnify" viewBox="0 0 375 374.999991" height="500" preserveAspectRatio="xMidYMid meet" version="1.2"><defs><clipPath id="8480b5b9d2"><path d="M 142 12.671875 L 238 12.671875 L 238 109 L 142 109 Z M 142 12.671875 "/></clipPath><clipPath id="53e0fa5310"><path d="M 144 127 L 236 127 L 236 303.671875 L 144 303.671875 Z M 144 127 "/></clipPath><clipPath id="71fc31b011"><path d="M 43.480469 170 L 124 170 L 124 303.671875 L 43.480469 303.671875 Z M 43.480469 170 "/></clipPath><clipPath id="44d8e025cf"><path d="M 256 191 L 337 191 L 337 303.671875 L 256 303.671875 Z M 256 191 "/></clipPath></defs><g id="26d06b01be"><g style="fill:#ffffff;fill-opacity:1;"><g transform="translate(29.437503, 356.999977)"><path style="stroke:none" d="M 2.96875 0 L 2.96875 -28.34375 L 8.890625 -28.34375 L 8.890625 -5.1875 L 23.484375 -5.1875 L 23.484375 0 Z M 2.96875 0 "/></g></g><g style="fill:#ffffff;fill-opacity:1;"><g transform="translate(53.727482, 356.999977)"><path style="stroke:none" d="M 23.65625 0 L 2.96875 0 L 2.96875 -28.34375 L 23.65625 -28.34375 L 23.65625 -23.171875 L 8.890625 -23.171875 L 8.890625 -17.21875 L 22.5 -17.21875 L 22.5 -12.1875 L 8.890625 -12.1875 L 8.890625 -5.1875 L 23.65625 -5.1875 Z M 23.65625 0 "/></g></g><g style="fill:#ffffff;fill-opacity:1;"><g transform="translate(79.137461, 356.999977)"><path style="stroke:none" d="M 0.203125 0 L 12.21875 -28.34375 L 18.3125 -28.34375 L 30.171875 0 L 24.078125 0 L 21.171875 -6.9375 L 9.0625 -6.9375 L 6.09375 0 Z M 10.921875 -11.90625 L 19.5625 -11.90625 L 15.328125 -22.125 L 15.15625 -22.125 Z M 10.921875 -11.90625 "/></g></g><g style="fill:#ffffff;fill-opacity:1;"><g transform="translate(109.517426, 356.999977)"><path style="stroke:none" d="M 2.96875 0 L 2.96875 -28.34375 L 14.140625 -28.34375 C 17.222656 -28.34375 19.882812 -27.769531 22.125 -26.625 C 24.363281 -25.488281 26.085938 -23.859375 27.296875 -21.734375 C 28.515625 -19.609375 29.125 -17.085938 29.125 -14.171875 C 29.125 -11.273438 28.507812 -8.765625 27.28125 -6.640625 C 26.050781 -4.523438 24.316406 -2.890625 22.078125 -1.734375 C 19.835938 -0.578125 17.191406 0 14.140625 0 Z M 8.890625 -5.046875 L 14.140625 -5.046875 C 17.078125 -5.046875 19.3125 -5.878906 20.84375 -7.546875 C 22.375 -9.210938 23.140625 -11.421875 23.140625 -14.171875 C 23.140625 -16.953125 22.375 -19.171875 20.84375 -20.828125 C 19.3125 -22.484375 17.078125 -23.3125 14.140625 -23.3125 L 8.890625 -23.3125 Z M 8.890625 -5.046875 "/></g></g><g style="fill:#ffffff;fill-opacity:1;"><g transform="translate(140.247397, 356.999977)"><path style="stroke:none" d="M 23.65625 0 L 2.96875 0 L 2.96875 -28.34375 L 23.65625 -28.34375 L 23.65625 -23.171875 L 8.890625 -23.171875 L 8.890625 -17.21875 L 22.5 -17.21875 L 22.5 -12.1875 L 8.890625 -12.1875 L 8.890625 -5.1875 L 23.65625 -5.1875 Z M 23.65625 0 "/></g></g><g style="fill:#ffffff;fill-opacity:1;"><g transform="translate(165.657375, 356.999977)"><path style="stroke:none" d="M 2.96875 0 L 2.96875 -28.34375 L 17.640625 -28.34375 C 20.671875 -28.34375 23.039062 -27.660156 24.75 -26.296875 C 26.46875 -24.929688 27.328125 -23.050781 27.328125 -20.65625 C 27.328125 -19.132812 26.972656 -17.835938 26.265625 -16.765625 C 25.554688 -15.691406 24.5625 -14.929688 23.28125 -14.484375 L 23.28125 -14.3125 C 24.5625 -14.3125 25.554688 -13.96875 26.265625 -13.28125 C 26.972656 -12.59375 27.328125 -11.5625 27.328125 -10.1875 L 27.328125 0 L 21.390625 0 L 21.390625 -10.78125 L 8.890625 -10.78125 L 8.890625 0 Z M 8.890625 -15.921875 L 17.25 -15.921875 C 18.601562 -15.921875 19.644531 -16.234375 20.375 -16.859375 C 21.113281 -17.492188 21.484375 -18.394531 21.484375 -19.5625 C 21.484375 -20.726562 21.113281 -21.625 20.375 -22.25 C 19.644531 -22.882812 18.601562 -23.203125 17.25 -23.203125 L 8.890625 -23.203125 Z M 8.890625 -15.921875 "/></g></g><g style="fill:#ffffff;fill-opacity:1;"><g transform="translate(195.54735, 356.999977)"><path style="stroke:none" d="M 2.96875 0 L 2.96875 -28.34375 L 17.53125 -28.34375 C 19.238281 -28.34375 20.734375 -28.039062 22.015625 -27.4375 C 23.296875 -26.832031 24.296875 -25.988281 25.015625 -24.90625 C 25.742188 -23.820312 26.109375 -22.566406 26.109375 -21.140625 C 26.109375 -19.710938 25.734375 -18.503906 24.984375 -17.515625 C 24.242188 -16.523438 23.226562 -15.785156 21.9375 -15.296875 L 21.9375 -15.15625 C 23.039062 -14.875 24.003906 -14.40625 24.828125 -13.75 C 25.660156 -13.101562 26.316406 -12.300781 26.796875 -11.34375 C 27.273438 -10.382812 27.515625 -9.296875 27.515625 -8.078125 C 27.515625 -6.472656 27.113281 -5.0625 26.3125 -3.84375 C 25.519531 -2.632812 24.429688 -1.691406 23.046875 -1.015625 C 21.660156 -0.335938 20.035156 0 18.171875 0 Z M 8.890625 -5.1875 L 17.109375 -5.1875 C 18.535156 -5.1875 19.632812 -5.492188 20.40625 -6.109375 C 21.175781 -6.722656 21.5625 -7.613281 21.5625 -8.78125 C 21.5625 -9.945312 21.179688 -10.832031 20.421875 -11.4375 C 19.660156 -12.050781 18.570312 -12.359375 17.15625 -12.359375 L 8.890625 -12.359375 Z M 8.890625 -17.046875 L 16.6875 -17.046875 C 17.8125 -17.046875 18.671875 -17.304688 19.265625 -17.828125 C 19.859375 -18.359375 20.15625 -19.125 20.15625 -20.125 C 20.15625 -21.125 19.859375 -21.878906 19.265625 -22.390625 C 18.671875 -22.910156 17.8125 -23.171875 16.6875 -23.171875 L 8.890625 -23.171875 Z M 8.890625 -17.046875 "/></g></g><g style="fill:#ffffff;fill-opacity:1;"><g transform="translate(223.757321, 356.999977)"><path style="stroke:none" d="M 16.09375 0.421875 C 13.175781 0.421875 10.640625 -0.175781 8.484375 -1.375 C 6.328125 -2.582031 4.640625 -4.273438 3.421875 -6.453125 C 2.210938 -8.640625 1.609375 -11.210938 1.609375 -14.171875 C 1.609375 -17.160156 2.210938 -19.742188 3.421875 -21.921875 C 4.640625 -24.109375 6.328125 -25.796875 8.484375 -26.984375 C 10.640625 -28.171875 13.175781 -28.765625 16.09375 -28.765625 C 19.039062 -28.765625 21.59375 -28.175781 23.75 -27 C 25.90625 -25.820312 27.582031 -24.140625 28.78125 -21.953125 C 29.988281 -19.773438 30.59375 -17.179688 30.59375 -14.171875 C 30.59375 -11.210938 29.984375 -8.632812 28.765625 -6.4375 C 27.554688 -4.25 25.867188 -2.554688 23.703125 -1.359375 C 21.546875 -0.171875 19.007812 0.421875 16.09375 0.421875 Z M 16.09375 -4.765625 C 18.800781 -4.765625 20.898438 -5.613281 22.390625 -7.3125 C 23.890625 -9.019531 24.640625 -11.304688 24.640625 -14.171875 C 24.640625 -17.066406 23.894531 -19.359375 22.40625 -21.046875 C 20.925781 -22.742188 18.820312 -23.59375 16.09375 -23.59375 C 13.394531 -23.59375 11.296875 -22.742188 9.796875 -21.046875 C 8.304688 -19.359375 7.5625 -17.066406 7.5625 -14.171875 C 7.5625 -11.304688 8.304688 -9.019531 9.796875 -7.3125 C 11.296875 -5.613281 13.394531 -4.765625 16.09375 -4.765625 Z M 16.09375 -4.765625 "/></g></g><g style="fill:#ffffff;fill-opacity:1;"><g transform="translate(254.557284, 356.999977)"><path style="stroke:none" d="M 0.203125 0 L 12.21875 -28.34375 L 18.3125 -28.34375 L 30.171875 0 L 24.078125 0 L 21.171875 -6.9375 L 9.0625 -6.9375 L 6.09375 0 Z M 10.921875 -11.90625 L 19.5625 -11.90625 L 15.328125 -22.125 L 15.15625 -22.125 Z M 10.921875 -11.90625 "/></g></g><g style="fill:#ffffff;fill-opacity:1;"><g transform="translate(284.937248, 356.999977)"><path style="stroke:none" d="M 2.96875 0 L 2.96875 -28.34375 L 17.640625 -28.34375 C 20.671875 -28.34375 23.039062 -27.660156 24.75 -26.296875 C 26.46875 -24.929688 27.328125 -23.050781 27.328125 -20.65625 C 27.328125 -19.132812 26.972656 -17.835938 26.265625 -16.765625 C 25.554688 -15.691406 24.5625 -14.929688 23.28125 -14.484375 L 23.28125 -14.3125 C 24.5625 -14.3125 25.554688 -13.96875 26.265625 -13.28125 C 26.972656 -12.59375 27.328125 -11.5625 27.328125 -10.1875 L 27.328125 0 L 21.390625 0 L 21.390625 -10.78125 L 8.890625 -10.78125 L 8.890625 0 Z M 8.890625 -15.921875 L 17.25 -15.921875 C 18.601562 -15.921875 19.644531 -16.234375 20.375 -16.859375 C 21.113281 -17.492188 21.484375 -18.394531 21.484375 -19.5625 C 21.484375 -20.726562 21.113281 -21.625 20.375 -22.25 C 19.644531 -22.882812 18.601562 -23.203125 17.25 -23.203125 L 8.890625 -23.203125 Z M 8.890625 -15.921875 "/></g></g><g style="fill:#ffffff;fill-opacity:1;"><g transform="translate(314.827223, 356.999977)"><path style="stroke:none" d="M 2.96875 0 L 2.96875 -28.34375 L 14.140625 -28.34375 C 17.222656 -28.34375 19.882812 -27.769531 22.125 -26.625 C 24.363281 -25.488281 26.085938 -23.859375 27.296875 -21.734375 C 28.515625 -19.609375 29.125 -17.085938 29.125 -14.171875 C 29.125 -11.273438 28.507812 -8.765625 27.28125 -6.640625 C 26.050781 -4.523438 24.316406 -2.890625 22.078125 -1.734375 C 19.835938 -0.578125 17.191406 0 14.140625 0 Z M 8.890625 -5.046875 L 14.140625 -5.046875 C 17.078125 -5.046875 19.3125 -5.878906 20.84375 -7.546875 C 22.375 -9.210938 23.140625 -11.421875 23.140625 -14.171875 C 23.140625 -16.953125 22.375 -19.171875 20.84375 -20.828125 C 19.3125 -22.484375 17.078125 -23.3125 14.140625 -23.3125 L 8.890625 -23.3125 Z M 8.890625 -5.046875 "/></g></g><g clip-rule="nonzero" clip-path="url(#8480b5b9d2)"><path style=" stroke:none;fill-rule:nonzero;fill:#ffffff;fill-opacity:1;" d="M 183.367188 17.011719 L 174.628906 37.414062 C 174.351562 38.058594 173.988281 38.648438 173.539062 39.1875 C 173.089844 39.722656 172.574219 40.183594 171.988281 40.570312 C 171.40625 40.957031 170.777344 41.25 170.105469 41.449219 C 169.4375 41.652344 168.75 41.753906 168.050781 41.753906 L 149.96875 41.753906 C 149.261719 41.753906 148.566406 41.855469 147.890625 42.0625 C 147.210938 42.269531 146.578125 42.566406 145.992188 42.960938 C 145.402344 43.355469 144.882812 43.824219 144.433594 44.371094 C 143.984375 44.917969 143.625 45.519531 143.355469 46.175781 C 143.085938 46.828125 142.914062 47.507812 142.84375 48.210938 C 142.773438 48.917969 142.808594 49.617188 142.949219 50.3125 C 143.085938 51.003906 143.320312 51.664062 143.65625 52.289062 C 143.988281 52.914062 144.40625 53.476562 144.90625 53.976562 L 158.453125 67.527344 C 158.890625 67.964844 159.261719 68.449219 159.574219 68.984375 C 159.886719 69.519531 160.125 70.082031 160.289062 70.679688 C 160.453125 71.273438 160.539062 71.882812 160.546875 72.5 C 160.554688 73.117188 160.484375 73.726562 160.335938 74.328125 L 153.933594 99.941406 C 153.765625 100.621094 153.695312 101.3125 153.726562 102.011719 C 153.761719 102.714844 153.894531 103.394531 154.125 104.054688 C 154.359375 104.71875 154.683594 105.332031 155.09375 105.898438 C 155.507812 106.464844 155.996094 106.960938 156.554688 107.382812 C 157.113281 107.808594 157.722656 108.140625 158.378906 108.386719 C 159.035156 108.632812 159.714844 108.777344 160.414062 108.820312 C 161.113281 108.867188 161.808594 108.8125 162.492188 108.652344 C 163.171875 108.496094 163.820312 108.242188 164.429688 107.894531 L 186.394531 95.335938 C 186.9375 95.027344 187.507812 94.792969 188.109375 94.632812 C 188.710938 94.472656 189.324219 94.394531 189.945312 94.394531 C 190.570312 94.394531 191.183594 94.472656 191.785156 94.632812 C 192.386719 94.792969 192.957031 95.027344 193.496094 95.335938 L 215.464844 107.894531 C 216.074219 108.242188 216.71875 108.496094 217.402344 108.652344 C 218.085938 108.8125 218.777344 108.867188 219.480469 108.820312 C 220.179688 108.777344 220.859375 108.632812 221.515625 108.386719 C 222.171875 108.140625 222.78125 107.808594 223.339844 107.382812 C 223.898438 106.960938 224.386719 106.464844 224.796875 105.898438 C 225.210938 105.332031 225.535156 104.71875 225.769531 104.054688 C 226 103.394531 226.132812 102.714844 226.167969 102.011719 C 226.199219 101.3125 226.128906 100.621094 225.960938 99.941406 L 219.558594 74.328125 C 219.410156 73.726562 219.339844 73.117188 219.347656 72.5 C 219.355469 71.882812 219.441406 71.273438 219.605469 70.679688 C 219.769531 70.082031 220.007812 69.519531 220.320312 68.984375 C 220.628906 68.449219 221.003906 67.964844 221.441406 67.527344 L 234.984375 53.976562 C 235.488281 53.476562 235.902344 52.914062 236.238281 52.289062 C 236.570312 51.664062 236.808594 51.003906 236.945312 50.3125 C 237.082031 49.617188 237.117188 48.917969 237.046875 48.210938 C 236.980469 47.507812 236.808594 46.828125 236.539062 46.175781 C 236.269531 45.519531 235.90625 44.917969 235.457031 44.371094 C 235.007812 43.824219 234.492188 43.355469 233.902344 42.960938 C 233.3125 42.566406 232.679688 42.269531 232.003906 42.0625 C 231.324219 41.855469 230.632812 41.753906 229.925781 41.753906 L 211.84375 41.753906 C 211.144531 41.753906 210.457031 41.652344 209.785156 41.449219 C 209.117188 41.25 208.488281 40.957031 207.902344 40.570312 C 207.320312 40.183594 206.800781 39.722656 206.351562 39.1875 C 205.902344 38.648438 205.539062 38.058594 205.265625 37.414062 L 196.523438 17.011719 C 196.25 16.367188 195.886719 15.777344 195.4375 15.242188 C 194.988281 14.703125 194.472656 14.242188 193.886719 13.855469 C 193.300781 13.46875 192.675781 13.175781 192.003906 12.976562 C 191.332031 12.773438 190.648438 12.671875 189.945312 12.671875 C 189.246094 12.671875 188.5625 12.773438 187.890625 12.976562 C 187.21875 13.175781 186.589844 13.46875 186.007812 13.855469 C 185.421875 14.242188 184.90625 14.703125 184.457031 15.242188 C 184.007812 15.777344 183.644531 16.367188 183.367188 17.011719 Z M 183.367188 17.011719 "/></g><path style=" stroke:none;fill-rule:nonzero;fill:#ffffff;fill-opacity:1;" d="M 77.652344 78.136719 L 70.445312 94.953125 C 70.21875 95.484375 69.917969 95.96875 69.550781 96.414062 C 69.179688 96.855469 68.753906 97.238281 68.269531 97.554688 C 67.789062 97.871094 67.273438 98.113281 66.71875 98.28125 C 66.164062 98.445312 65.601562 98.53125 65.023438 98.53125 L 50.117188 98.53125 C 49.535156 98.53125 48.964844 98.613281 48.40625 98.785156 C 47.847656 98.953125 47.324219 99.199219 46.839844 99.527344 C 46.355469 99.851562 45.925781 100.238281 45.554688 100.6875 C 45.1875 101.140625 44.890625 101.636719 44.667969 102.175781 C 44.441406 102.714844 44.304688 103.273438 44.246094 103.855469 C 44.1875 104.433594 44.21875 105.011719 44.332031 105.585938 C 44.445312 106.15625 44.640625 106.699219 44.914062 107.214844 C 45.1875 107.730469 45.53125 108.191406 45.945312 108.605469 L 57.113281 119.777344 C 57.84375 120.507812 58.347656 121.375 58.625 122.375 C 58.902344 123.375 58.914062 124.375 58.664062 125.382812 L 53.386719 146.496094 C 53.246094 147.058594 53.191406 147.625 53.21875 148.203125 C 53.242188 148.78125 53.351562 149.34375 53.546875 149.886719 C 53.738281 150.433594 54.003906 150.941406 54.34375 151.40625 C 54.683594 151.875 55.085938 152.28125 55.546875 152.632812 C 56.007812 152.980469 56.507812 153.257812 57.050781 153.457031 C 57.59375 153.660156 58.152344 153.78125 58.730469 153.816406 C 59.304688 153.855469 59.875 153.808594 60.441406 153.679688 C 61.003906 153.546875 61.535156 153.339844 62.039062 153.050781 L 80.144531 142.699219 C 81.054688 142.183594 82.027344 141.921875 83.074219 141.921875 C 84.117188 141.921875 85.09375 142.183594 86 142.699219 L 104.109375 153.050781 C 104.609375 153.339844 105.144531 153.546875 105.707031 153.679688 C 106.269531 153.808594 106.839844 153.855469 107.417969 153.816406 C 107.996094 153.78125 108.554688 153.660156 109.097656 153.457031 C 109.636719 153.257812 110.140625 152.980469 110.601562 152.632812 C 111.0625 152.28125 111.460938 151.875 111.800781 151.40625 C 112.144531 150.941406 112.410156 150.433594 112.601562 149.886719 C 112.792969 149.34375 112.902344 148.78125 112.929688 148.203125 C 112.957031 147.625 112.898438 147.058594 112.761719 146.496094 L 107.484375 125.382812 C 107.230469 124.375 107.246094 123.375 107.519531 122.375 C 107.796875 121.375 108.300781 120.507812 109.035156 119.777344 L 120.199219 108.605469 C 120.613281 108.191406 120.957031 107.730469 121.234375 107.214844 C 121.507812 106.699219 121.703125 106.15625 121.816406 105.585938 C 121.929688 105.011719 121.957031 104.433594 121.902344 103.855469 C 121.84375 103.273438 121.703125 102.714844 121.480469 102.175781 C 121.257812 101.636719 120.960938 101.140625 120.589844 100.6875 C 120.21875 100.238281 119.792969 99.851562 119.308594 99.527344 C 118.824219 99.199219 118.300781 98.953125 117.742188 98.785156 C 117.183594 98.613281 116.613281 98.53125 116.027344 98.53125 L 101.125 98.53125 C 100.546875 98.53125 99.980469 98.445312 99.429688 98.28125 C 98.875 98.113281 98.355469 97.871094 97.875 97.554688 C 97.394531 97.238281 96.96875 96.855469 96.597656 96.414062 C 96.226562 95.96875 95.929688 95.484375 95.699219 94.953125 L 88.496094 78.136719 C 88.269531 77.605469 87.96875 77.117188 87.601562 76.675781 C 87.230469 76.230469 86.804688 75.851562 86.320312 75.535156 C 85.839844 75.214844 85.320312 74.972656 84.769531 74.808594 C 84.214844 74.640625 83.652344 74.558594 83.074219 74.558594 C 82.496094 74.558594 81.929688 74.640625 81.378906 74.808594 C 80.824219 74.972656 80.308594 75.214844 79.824219 75.535156 C 79.34375 75.851562 78.917969 76.230469 78.546875 76.675781 C 78.175781 77.117188 77.878906 77.605469 77.652344 78.136719 Z M 77.652344 78.136719 "/><g clip-rule="nonzero" clip-path="url(#53e0fa5310)"><path style=" stroke:none;fill-rule:nonzero;fill:#ffffff;fill-opacity:1;" d="M 157.882812 127.5625 L 222.007812 127.5625 C 222.886719 127.5625 223.753906 127.648438 224.613281 127.820312 C 225.476562 127.988281 226.308594 128.242188 227.121094 128.578125 C 227.929688 128.914062 228.703125 129.324219 229.429688 129.8125 C 230.160156 130.300781 230.835938 130.855469 231.453125 131.472656 C 232.074219 132.09375 232.628906 132.769531 233.117188 133.5 C 233.605469 134.226562 234.015625 135 234.351562 135.808594 C 234.6875 136.617188 234.941406 137.453125 235.109375 138.316406 C 235.28125 139.175781 235.367188 140.042969 235.367188 140.921875 L 235.367188 290.542969 C 235.367188 291.421875 235.28125 292.289062 235.109375 293.148438 C 234.941406 294.011719 234.6875 294.84375 234.351562 295.65625 C 234.015625 296.464844 233.605469 297.234375 233.117188 297.964844 C 232.628906 298.695312 232.074219 299.371094 231.453125 299.988281 C 230.835938 300.609375 230.160156 301.164062 229.429688 301.652344 C 228.703125 302.136719 227.929688 302.550781 227.121094 302.886719 C 226.308594 303.222656 225.476562 303.476562 224.613281 303.644531 C 223.753906 303.816406 222.886719 303.902344 222.007812 303.902344 L 157.882812 303.902344 C 157.007812 303.902344 156.140625 303.816406 155.277344 303.644531 C 154.417969 303.476562 153.582031 303.222656 152.773438 302.886719 C 151.960938 302.550781 151.191406 302.136719 150.460938 301.652344 C 149.734375 301.164062 149.058594 300.609375 148.4375 299.988281 C 147.816406 299.371094 147.265625 298.695312 146.777344 297.964844 C 146.289062 297.234375 145.878906 296.464844 145.542969 295.65625 C 145.207031 294.84375 144.953125 294.011719 144.78125 293.148438 C 144.609375 292.289062 144.527344 291.421875 144.527344 290.542969 L 144.527344 140.921875 C 144.527344 140.042969 144.609375 139.175781 144.78125 138.316406 C 144.953125 137.453125 145.207031 136.617188 145.542969 135.808594 C 145.878906 135 146.289062 134.226562 146.777344 133.5 C 147.265625 132.769531 147.816406 132.09375 148.4375 131.472656 C 149.058594 130.855469 149.734375 130.300781 150.460938 129.8125 C 151.191406 129.324219 151.960938 128.914062 152.773438 128.578125 C 153.582031 128.242188 154.417969 127.988281 155.277344 127.820312 C 156.140625 127.648438 157.007812 127.5625 157.882812 127.5625 Z M 157.882812 127.5625 "/></g><g clip-rule="nonzero" clip-path="url(#71fc31b011)"><path style=" stroke:none;fill-rule:nonzero;fill:#ffffff;fill-opacity:1;" d="M 56.355469 170.3125 L 109.792969 170.3125 C 110.667969 170.3125 111.539062 170.398438 112.398438 170.566406 C 113.257812 170.738281 114.09375 170.992188 114.902344 171.328125 C 115.714844 171.664062 116.484375 172.074219 117.214844 172.5625 C 117.941406 173.050781 118.617188 173.605469 119.238281 174.222656 C 119.859375 174.84375 120.410156 175.519531 120.898438 176.25 C 121.386719 176.976562 121.796875 177.746094 122.132812 178.558594 C 122.46875 179.367188 122.722656 180.203125 122.894531 181.0625 C 123.066406 181.925781 123.152344 182.792969 123.152344 183.671875 L 123.152344 290.542969 C 123.152344 291.421875 123.066406 292.289062 122.894531 293.148438 C 122.722656 294.011719 122.46875 294.84375 122.132812 295.65625 C 121.796875 296.464844 121.386719 297.234375 120.898438 297.964844 C 120.410156 298.695312 119.859375 299.371094 119.238281 299.988281 C 118.617188 300.609375 117.941406 301.164062 117.214844 301.652344 C 116.484375 302.136719 115.714844 302.550781 114.902344 302.886719 C 114.09375 303.222656 113.257812 303.476562 112.398438 303.644531 C 111.539062 303.816406 110.667969 303.902344 109.792969 303.902344 L 56.355469 303.902344 C 55.476562 303.902344 54.609375 303.816406 53.75 303.644531 C 52.886719 303.476562 52.054688 303.222656 51.242188 302.886719 C 50.433594 302.550781 49.664062 302.136719 48.933594 301.652344 C 48.203125 301.164062 47.527344 300.609375 46.910156 299.988281 C 46.289062 299.371094 45.734375 298.695312 45.246094 297.964844 C 44.761719 297.234375 44.347656 296.464844 44.011719 295.65625 C 43.675781 294.84375 43.421875 294.011719 43.253906 293.148438 C 43.082031 292.289062 42.996094 291.421875 42.996094 290.542969 L 42.996094 183.671875 C 42.996094 182.792969 43.082031 181.925781 43.253906 181.0625 C 43.421875 180.203125 43.675781 179.367188 44.011719 178.558594 C 44.347656 177.746094 44.761719 176.976562 45.246094 176.25 C 45.734375 175.519531 46.289062 174.84375 46.910156 174.222656 C 47.527344 173.605469 48.203125 173.050781 48.933594 172.5625 C 49.664062 172.074219 50.433594 171.664062 51.242188 171.328125 C 52.054688 170.992188 52.886719 170.738281 53.75 170.566406 C 54.609375 170.398438 55.476562 170.3125 56.355469 170.3125 Z M 56.355469 170.3125 "/></g><g clip-rule="nonzero" clip-path="url(#44d8e025cf)"><path style=" stroke:none;fill-rule:nonzero;fill:#ffffff;fill-opacity:1;" d="M 270.101562 191.6875 L 323.539062 191.6875 C 324.414062 191.6875 325.285156 191.769531 326.144531 191.941406 C 327.003906 192.113281 327.839844 192.367188 328.652344 192.703125 C 329.460938 193.039062 330.230469 193.449219 330.960938 193.9375 C 331.691406 194.425781 332.363281 194.976562 332.984375 195.597656 C 333.605469 196.21875 334.160156 196.894531 334.644531 197.621094 C 335.132812 198.351562 335.542969 199.121094 335.878906 199.933594 C 336.214844 200.742188 336.46875 201.578125 336.640625 202.4375 C 336.8125 203.300781 336.898438 204.167969 336.898438 205.046875 L 336.898438 290.542969 C 336.898438 291.421875 336.8125 292.289062 336.640625 293.148438 C 336.46875 294.011719 336.214844 294.84375 335.878906 295.65625 C 335.542969 296.464844 335.132812 297.234375 334.644531 297.964844 C 334.160156 298.695312 333.605469 299.371094 332.984375 299.988281 C 332.363281 300.609375 331.691406 301.164062 330.960938 301.652344 C 330.230469 302.136719 329.460938 302.550781 328.652344 302.886719 C 327.839844 303.222656 327.003906 303.476562 326.144531 303.644531 C 325.285156 303.816406 324.414062 303.902344 323.539062 303.902344 L 270.101562 303.902344 C 269.222656 303.902344 268.355469 303.816406 267.496094 303.644531 C 266.636719 303.476562 265.800781 303.222656 264.988281 302.886719 C 264.179688 302.550781 263.410156 302.136719 262.679688 301.652344 C 261.949219 301.164062 261.277344 300.609375 260.65625 299.988281 C 260.035156 299.371094 259.480469 298.695312 258.992188 297.964844 C 258.507812 297.234375 258.09375 296.464844 257.757812 295.65625 C 257.421875 294.84375 257.171875 294.011719 257 293.148438 C 256.828125 292.289062 256.742188 291.421875 256.742188 290.542969 L 256.742188 205.046875 C 256.742188 204.167969 256.828125 203.300781 257 202.4375 C 257.171875 201.578125 257.421875 200.742188 257.757812 199.933594 C 258.09375 199.121094 258.507812 198.351562 258.992188 197.621094 C 259.480469 196.894531 260.035156 196.21875 260.65625 195.597656 C 261.277344 194.976562 261.949219 194.425781 262.679688 193.9375 C 263.410156 193.449219 264.179688 193.039062 264.988281 192.703125 C 265.800781 192.367188 266.636719 192.113281 267.496094 191.941406 C 268.355469 191.769531 269.222656 191.6875 270.101562 191.6875 Z M 270.101562 191.6875 "/></g><path style=" stroke:none;fill-rule:nonzero;fill:#ffffff;fill-opacity:1;" d="M 291.398438 99.511719 L 284.191406 116.328125 C 283.964844 116.859375 283.667969 117.34375 283.296875 117.789062 C 282.925781 118.230469 282.5 118.613281 282.019531 118.929688 C 281.535156 119.246094 281.019531 119.488281 280.464844 119.65625 C 279.914062 119.820312 279.347656 119.90625 278.769531 119.90625 L 263.863281 119.90625 C 263.28125 119.90625 262.710938 119.988281 262.152344 120.160156 C 261.59375 120.328125 261.070312 120.574219 260.585938 120.898438 C 260.101562 121.222656 259.671875 121.613281 259.304688 122.0625 C 258.933594 122.515625 258.636719 123.011719 258.414062 123.550781 C 258.191406 124.089844 258.050781 124.648438 257.992188 125.230469 C 257.933594 125.808594 257.964844 126.386719 258.078125 126.957031 C 258.191406 127.53125 258.386719 128.074219 258.660156 128.589844 C 258.9375 129.105469 259.28125 129.566406 259.691406 129.980469 L 270.859375 141.152344 C 271.589844 141.882812 272.09375 142.75 272.371094 143.75 C 272.648438 144.75 272.660156 145.75 272.410156 146.757812 L 267.132812 167.871094 C 266.992188 168.429688 266.9375 169 266.964844 169.578125 C 266.988281 170.15625 267.101562 170.71875 267.292969 171.261719 C 267.484375 171.808594 267.75 172.3125 268.089844 172.78125 C 268.433594 173.25 268.832031 173.65625 269.292969 174.007812 C 269.753906 174.355469 270.253906 174.628906 270.796875 174.832031 C 271.339844 175.035156 271.898438 175.152344 272.476562 175.191406 C 273.054688 175.230469 273.621094 175.183594 274.1875 175.050781 C 274.75 174.921875 275.28125 174.714844 275.785156 174.425781 L 293.894531 164.074219 C 294.800781 163.554688 295.773438 163.296875 296.820312 163.296875 C 297.863281 163.296875 298.839844 163.554688 299.746094 164.074219 L 317.855469 174.425781 C 318.359375 174.714844 318.890625 174.921875 319.453125 175.050781 C 320.015625 175.183594 320.585938 175.230469 321.164062 175.191406 C 321.742188 175.152344 322.300781 175.035156 322.84375 174.832031 C 323.382812 174.628906 323.886719 174.355469 324.347656 174.007812 C 324.808594 173.65625 325.207031 173.25 325.550781 172.78125 C 325.890625 172.3125 326.15625 171.808594 326.347656 171.261719 C 326.539062 170.71875 326.648438 170.15625 326.675781 169.578125 C 326.703125 169 326.648438 168.429688 326.507812 167.871094 L 321.230469 146.757812 C 320.976562 145.75 320.992188 144.75 321.269531 143.75 C 321.542969 142.75 322.050781 141.882812 322.78125 141.152344 L 333.949219 129.980469 C 334.359375 129.566406 334.703125 129.105469 334.980469 128.589844 C 335.253906 128.074219 335.449219 127.53125 335.5625 126.957031 C 335.675781 126.386719 335.703125 125.808594 335.648438 125.230469 C 335.589844 124.648438 335.449219 124.089844 335.226562 123.550781 C 335.003906 123.011719 334.707031 122.515625 334.335938 122.0625 C 333.96875 121.613281 333.539062 121.222656 333.054688 120.898438 C 332.570312 120.574219 332.046875 120.328125 331.488281 120.160156 C 330.929688 119.988281 330.359375 119.90625 329.777344 119.90625 L 314.871094 119.90625 C 314.292969 119.90625 313.726562 119.820312 313.175781 119.65625 C 312.621094 119.488281 312.105469 119.246094 311.621094 118.929688 C 311.140625 118.613281 310.714844 118.230469 310.34375 117.789062 C 309.972656 117.34375 309.675781 116.859375 309.445312 116.328125 L 302.242188 99.511719 C 302.015625 98.980469 301.714844 98.492188 301.347656 98.050781 C 300.976562 97.605469 300.550781 97.226562 300.066406 96.90625 C 299.585938 96.589844 299.070312 96.347656 298.515625 96.183594 C 297.960938 96.015625 297.398438 95.933594 296.820312 95.933594 C 296.242188 95.933594 295.675781 96.015625 295.125 96.183594 C 294.570312 96.347656 294.054688 96.589844 293.570312 96.90625 C 293.089844 97.226562 292.664062 97.605469 292.292969 98.050781 C 291.921875 98.492188 291.625 98.980469 291.398438 99.511719 Z M 291.398438 99.511719 "/></g></svg>