<svg xmlns="http://www.w3.org/2000/svg" xmlns:xlink="http://www.w3.org/1999/xlink" width="500" zoomAndPan="magnify" viewBox="0 0 375 374.999991" height="500" preserveAspectRatio="xMidYMid meet" version="1.2"><defs><clipPath id="4861296a7c"><path d="M 138 281 L 155 281 L 155 303.925781 L 138 303.925781 Z M 138 281 "/></clipPath><clipPath id="319fc60f22"><path d="M 162 281 L 184 281 L 184 303.925781 L 162 303.925781 Z M 162 281 "/></clipPath><clipPath id="dfd8a35fd4"><path d="M 191 281 L 209 281 L 209 303.925781 L 191 303.925781 Z M 191 281 "/></clipPath><clipPath id="8325859102"><path d="M 216 281 L 235 281 L 235 303.925781 L 216 303.925781 Z M 216 281 "/></clipPath><clipPath id="bb8bb4e850"><path d="M 16.378906 209 L 69 209 L 69 282 L 16.378906 282 Z M 16.378906 209 "/></clipPath><clipPath id="4c8bae5807"><path d="M 135 71.425781 L 238 71.425781 L 238 174 L 135 174 Z M 135 71.425781 "/></clipPath></defs><g id="6c1eb02b46"><rect x="0" width="375" y="0" height="374.999991" style="fill:#ffffff;fill-opacity:1;stroke:none;"/><rect x="0" width="375" y="0" height="374.999991" style="fill:#0090ff;fill-opacity:1;stroke:none;"/><g clip-rule="nonzero" clip-path="url(#4861296a7c)"><path style=" stroke:none;fill-rule:nonzero;fill:#ffffff;fill-opacity:1;" d="M 141.890625 281.472656 L 138.351562 281.472656 L 138.351562 303.3125 L 154.8125 303.3125 L 154.8125 299.9375 L 141.890625 299.9375 Z M 141.890625 281.472656 "/></g><g clip-rule="nonzero" clip-path="url(#319fc60f22)"><path style=" stroke:none;fill-rule:nonzero;fill:#ffffff;fill-opacity:1;" d="M 173.234375 281.152344 C 170.53125 281.152344 168.164062 282.980469 167.46875 285.59375 L 162.785156 303.320312 L 166.511719 303.320312 L 168.824219 294.574219 L 177.648438 294.574219 L 179.960938 303.320312 L 183.691406 303.320312 L 179.003906 285.59375 C 178.3125 282.972656 175.945312 281.152344 173.242188 281.152344 Z M 176.707031 291.027344 L 169.765625 291.027344 L 170.976562 286.433594 C 171.25 285.410156 172.171875 284.691406 173.234375 284.691406 C 174.292969 284.691406 175.21875 285.410156 175.488281 286.433594 L 176.699219 291.027344 Z M 176.707031 291.027344 "/></g><g clip-rule="nonzero" clip-path="url(#dfd8a35fd4)"><path style=" stroke:none;fill-rule:nonzero;fill:#ffffff;fill-opacity:1;" d="M 205.792969 291.410156 C 207.078125 290.371094 207.792969 288.84375 207.792969 287.136719 C 207.792969 283.859375 205.21875 281.480469 201.664062 281.480469 L 191.652344 281.480469 L 191.652344 303.320312 L 202.390625 303.320312 C 205.992188 303.320312 208.925781 300.382812 208.925781 296.769531 C 208.925781 294.503906 207.738281 292.503906 205.792969 291.410156 Z M 195.191406 293.601562 L 202.0625 293.601562 C 203.691406 293.601562 205.058594 295.054688 205.058594 296.761719 C 205.058594 298.472656 203.691406 299.925781 202.0625 299.925781 L 195.191406 299.925781 L 195.191406 293.589844 Z M 201.347656 290.21875 L 195.199219 290.21875 L 195.199219 284.859375 L 201.347656 284.859375 C 202.75 284.859375 203.9375 286.082031 203.9375 287.535156 C 203.9375 288.988281 202.75 290.21875 201.347656 290.21875 Z M 201.347656 290.21875 "/></g><g clip-rule="nonzero" clip-path="url(#8325859102)"><path style=" stroke:none;fill-rule:nonzero;fill:#ffffff;fill-opacity:1;" d="M 227.746094 290.070312 L 223.035156 290.070312 C 221.601562 290.070312 220.4375 288.902344 220.4375 287.464844 C 220.4375 286.027344 221.601562 284.859375 223.035156 284.859375 L 233.550781 284.859375 L 233.550781 281.472656 L 222.875 281.472656 C 219.585938 281.472656 216.898438 284.15625 216.898438 287.464844 C 216.898438 290.773438 219.574219 293.457031 222.875 293.457031 L 227.585938 293.457031 C 229.375 293.457031 230.824219 294.910156 230.824219 296.699219 C 230.824219 298.488281 229.375 299.941406 227.585938 299.941406 L 216.90625 299.941406 L 216.90625 303.332031 L 227.753906 303.332031 C 231.398438 303.332031 234.363281 300.359375 234.363281 296.707031 C 234.363281 293.058594 231.398438 290.085938 227.753906 290.085938 Z M 227.746094 290.070312 "/></g><g clip-rule="nonzero" clip-path="url(#bb8bb4e850)"><path style=" stroke:none;fill-rule:nonzero;fill:#ffffff;fill-opacity:1;" d="M 42.207031 209.246094 C 27.722656 209.246094 16.378906 220.613281 16.378906 235.128906 C 16.378906 249.644531 27.722656 261.011719 42.207031 261.011719 C 47.9375 261.011719 53.230469 259.3125 57.628906 256.082031 L 57.628906 268.332031 C 57.628906 269.945312 56.324219 271.253906 54.710938 271.253906 L 21.671875 271.253906 L 21.671875 281.152344 L 55.390625 281.152344 C 62.363281 281.152344 68.03125 275.464844 68.03125 268.484375 L 68.03125 235.136719 C 68.03125 220.613281 56.679688 209.246094 42.207031 209.246094 Z M 42.207031 219.144531 C 50.847656 219.144531 57.367188 226.015625 57.367188 235.128906 C 57.367188 244.246094 50.855469 251.117188 42.207031 251.117188 C 33.558594 251.117188 27.042969 244.246094 27.042969 235.128906 C 27.042969 226.015625 33.558594 219.144531 42.207031 219.144531 Z M 42.207031 219.144531 "/></g><path style=" stroke:none;fill-rule:nonzero;fill:#ffffff;fill-opacity:1;" d="M 96.105469 210.308594 L 95.046875 210.308594 C 83.574219 210.308594 74.25 219.65625 74.25 231.152344 L 74.25 244.941406 C 74.25 253.214844 80.96875 259.953125 89.226562 259.953125 L 116.910156 259.953125 L 116.910156 250.054688 L 89.914062 250.054688 C 87.019531 250.054688 84.660156 247.6875 84.660156 244.789062 L 84.660156 241.402344 L 112.046875 241.402344 C 114.734375 241.402344 116.910156 239.222656 116.910156 236.527344 L 116.910156 231.152344 C 116.910156 219.65625 107.585938 210.308594 96.113281 210.308594 Z M 106.5 231.503906 L 84.652344 231.519531 L 84.652344 231.167969 C 84.652344 228.140625 85.855469 225.335938 88.039062 223.242188 C 90.214844 221.15625 93.09375 220.070312 96.105469 220.230469 C 101.933594 220.503906 106.5 225.457031 106.5 231.511719 Z M 106.5 231.503906 "/><path style=" stroke:none;fill-rule:nonzero;fill:#ffffff;fill-opacity:1;" d="M 123.144531 222.988281 L 123.144531 259.957031 L 133.546875 259.957031 L 133.546875 223.140625 C 133.546875 221.527344 134.855469 220.214844 136.464844 220.214844 L 155.226562 220.214844 L 155.226562 210.308594 L 135.785156 210.308594 C 128.8125 210.308594 123.144531 215.996094 123.144531 222.980469 Z M 123.144531 222.988281 "/><path style=" stroke:none;fill-rule:nonzero;fill:#ffffff;fill-opacity:1;" d="M 215.195312 209.261719 C 210.71875 209.101562 206.492188 210.734375 203.273438 213.832031 C 200.058594 216.9375 198.28125 221.117188 198.28125 225.589844 L 198.28125 250.054688 L 195.722656 250.054688 L 183.191406 213.601562 C 182.515625 211.636719 180.675781 210.316406 178.59375 210.316406 L 166.308594 210.316406 C 163.621094 210.316406 161.445312 212.496094 161.445312 215.191406 L 161.445312 259.957031 L 171.847656 259.957031 L 171.847656 220.199219 L 174.40625 220.199219 L 188.070312 259.941406 L 208.683594 259.941406 L 208.683594 225.054688 C 208.683594 223.402344 209.347656 221.878906 210.550781 220.734375 C 211.753906 219.601562 213.324219 219.046875 214.972656 219.152344 C 218.066406 219.351562 220.480469 222.042969 220.480469 225.289062 L 220.480469 259.941406 L 230.882812 259.941406 L 230.882812 225.949219 C 230.898438 217.058594 223.851562 209.566406 215.1875 209.246094 L 215.195312 209.246094 Z M 215.195312 209.261719 "/><path style=" stroke:none;fill-rule:nonzero;fill:#ffffff;fill-opacity:1;" d="M 247.527344 210.308594 L 237.125 210.308594 L 237.125 259.953125 L 247.527344 259.953125 Z M 247.527344 210.308594 "/><path style=" stroke:none;fill-rule:nonzero;fill:#ffffff;fill-opacity:1;" d="M 299.492188 248.550781 C 299.492188 248.976562 299.324219 249.367188 299.011719 249.652344 C 298.710938 249.941406 298.304688 250.085938 297.878906 250.054688 C 297.296875 250.011719 296.75 249.558594 296.53125 248.917969 L 284.394531 213.59375 C 283.714844 211.625 281.875 210.308594 279.792969 210.308594 L 272.828125 210.308594 C 270.746094 210.308594 268.90625 211.625 268.226562 213.59375 L 252.292969 259.953125 L 263.339844 259.953125 L 276.300781 222.21875 L 286.472656 251.808594 C 288.171875 256.753906 292.714844 259.941406 297.824219 259.941406 C 298.3125 259.941406 298.8125 259.910156 299.308594 259.855469 C 305.339844 259.128906 309.878906 253.847656 309.878906 247.585938 L 309.878906 210.300781 L 299.476562 210.300781 L 299.476562 248.542969 L 299.464844 248.542969 Z M 299.492188 248.550781 "/><path style=" stroke:none;fill-rule:nonzero;fill:#ffffff;fill-opacity:1;" d="M 339.992188 210.308594 L 320.511719 210.308594 L 320.511719 220.207031 L 338.929688 220.207031 C 343.355469 220.207031 346.949219 223.808594 346.949219 228.234375 L 346.949219 228.324219 L 332.058594 228.324219 C 327.738281 228.324219 323.707031 230.042969 320.707031 233.15625 C 317.703125 236.273438 316.140625 240.378906 316.300781 244.714844 C 316.597656 253.113281 323.832031 259.953125 332.425781 259.953125 L 352.496094 259.953125 C 355.183594 259.953125 357.359375 257.769531 357.359375 255.078125 L 357.359375 227.71875 C 357.359375 218.113281 349.574219 210.308594 339.992188 210.308594 Z M 346.949219 238.230469 L 346.949219 250.0625 L 332.585938 250.0625 C 330.9375 250.0625 329.414062 249.398438 328.28125 248.191406 C 327.15625 246.992188 326.59375 245.410156 326.703125 243.757812 C 326.902344 240.660156 329.589844 238.238281 332.824219 238.238281 L 346.957031 238.238281 Z M 346.949219 238.230469 "/><g clip-rule="nonzero" clip-path="url(#4c8bae5807)"><path style=" stroke:none;fill-rule:nonzero;fill:#ffffff;fill-opacity:1;" d="M 210.21875 71.425781 L 163.34375 71.425781 C 148.21875 71.425781 135.960938 83.714844 135.960938 98.871094 L 135.960938 145.847656 C 135.960938 161.003906 148.21875 173.292969 163.34375 173.292969 L 210.21875 173.292969 C 225.34375 173.292969 237.601562 161.003906 237.601562 145.847656 L 237.601562 98.871094 C 237.601562 83.714844 225.34375 71.425781 210.21875 71.425781 Z M 230.851562 95.394531 L 213.9375 95.394531 C 213.699219 95.394531 213.496094 95.214844 213.46875 94.976562 C 212.628906 88.355469 209.386719 82.480469 204.644531 78.253906 C 204.320312 77.960938 204.523438 77.417969 204.960938 77.417969 L 210.695312 77.417969 C 221.027344 77.417969 229.636719 84.960938 231.324219 94.839844 C 231.371094 95.132812 231.144531 95.394531 230.851562 95.394531 Z M 166.785156 149.695312 C 175.183594 151.296875 181.820312 157.949219 183.421875 166.371094 C 183.484375 166.699219 183.195312 166.988281 182.867188 166.925781 C 174.464844 165.324219 167.828125 158.671875 166.230469 150.25 C 166.164062 149.925781 166.457031 149.632812 166.785156 149.695312 Z M 206.777344 95.023438 C 198.375 93.421875 191.738281 86.769531 190.140625 78.347656 C 190.078125 78.023438 190.367188 77.730469 190.695312 77.792969 C 199.097656 79.394531 205.734375 86.046875 207.332031 94.46875 C 207.398438 94.796875 207.105469 95.085938 206.777344 95.023438 Z M 207.289062 143.550781 C 200.683594 144.390625 194.820312 147.644531 190.605469 152.394531 C 190.3125 152.71875 189.769531 152.515625 189.769531 152.078125 L 189.769531 146.328125 C 189.769531 135.972656 197.296875 127.347656 207.152344 125.65625 C 207.445312 125.609375 207.707031 125.835938 207.707031 126.132812 L 207.707031 143.082031 C 207.707031 143.320312 207.527344 143.523438 207.289062 143.550781 Z M 186.367188 133.230469 C 183.925781 128.851562 180.304688 125.21875 175.933594 122.777344 C 175.613281 122.597656 175.613281 122.128906 175.933594 121.949219 C 180.304688 119.503906 183.925781 115.871094 186.367188 111.496094 C 186.546875 111.171875 187.011719 111.171875 187.191406 111.496094 C 189.628906 115.871094 193.253906 119.503906 197.625 121.949219 C 197.945312 122.128906 197.945312 122.597656 197.625 122.777344 C 193.253906 125.21875 189.628906 128.851562 187.191406 133.230469 C 187.011719 133.554688 186.546875 133.554688 186.367188 133.230469 Z M 182.957031 152.394531 C 178.742188 147.644531 172.878906 144.394531 166.273438 143.550781 C 166.035156 143.519531 165.855469 143.320312 165.855469 143.082031 L 165.855469 126.132812 C 165.855469 125.835938 166.117188 125.609375 166.40625 125.65625 C 176.265625 127.347656 183.792969 135.972656 183.792969 146.328125 L 183.792969 152.078125 C 183.792969 152.515625 183.253906 152.71875 182.957031 152.394531 Z M 166.273438 101.167969 C 172.878906 100.328125 178.742188 97.078125 182.957031 92.328125 C 183.25 92 183.792969 92.203125 183.792969 92.644531 L 183.792969 98.390625 C 183.792969 108.746094 176.265625 117.371094 166.40625 119.0625 C 166.117188 119.113281 165.855469 118.882812 165.855469 118.589844 L 165.855469 101.640625 C 165.855469 101.398438 166.035156 101.195312 166.273438 101.167969 Z M 189.769531 98.390625 L 189.769531 92.644531 C 189.769531 92.203125 190.308594 92 190.605469 92.328125 C 194.820312 97.078125 200.683594 100.324219 207.289062 101.167969 C 207.527344 101.199219 207.707031 101.398438 207.707031 101.640625 L 207.707031 118.589844 C 207.707031 118.882812 207.445312 119.113281 207.152344 119.0625 C 197.296875 117.371094 189.769531 108.746094 189.769531 98.390625 Z M 183.421875 78.34375 C 181.820312 86.765625 175.183594 93.417969 166.785156 95.019531 C 166.457031 95.082031 166.164062 94.792969 166.230469 94.464844 C 167.828125 86.042969 174.464844 79.390625 182.867188 77.789062 C 183.195312 77.726562 183.484375 78.019531 183.421875 78.34375 Z M 190.140625 166.375 C 191.738281 157.953125 198.375 151.300781 206.777344 149.699219 C 207.105469 149.636719 207.398438 149.929688 207.332031 150.253906 C 205.734375 158.675781 199.097656 165.328125 190.695312 166.929688 C 190.367188 166.992188 190.078125 166.703125 190.140625 166.375 Z M 162.863281 77.417969 L 168.601562 77.417969 C 169.039062 77.417969 169.242188 77.957031 168.914062 78.253906 C 164.175781 82.480469 160.9375 88.355469 160.09375 94.976562 C 160.0625 95.214844 159.863281 95.394531 159.625 95.394531 L 142.710938 95.394531 C 142.417969 95.394531 142.1875 95.132812 142.238281 94.839844 C 143.925781 84.960938 152.53125 77.417969 162.863281 77.417969 Z M 142.417969 101.386719 L 159.398438 101.386719 C 159.660156 101.386719 159.875 101.601562 159.875 101.867188 L 159.875 142.851562 C 159.875 143.117188 159.660156 143.332031 159.398438 143.332031 L 142.417969 143.332031 C 142.152344 143.332031 141.9375 143.117188 141.9375 142.851562 L 141.9375 101.867188 C 141.9375 101.601562 142.152344 101.386719 142.417969 101.386719 Z M 142.710938 149.324219 L 159.625 149.324219 C 159.863281 149.324219 160.066406 149.503906 160.09375 149.746094 C 160.929688 156.363281 164.175781 162.238281 168.914062 166.464844 C 169.242188 166.757812 169.039062 167.300781 168.601562 167.300781 L 162.863281 167.300781 C 152.53125 167.300781 143.925781 159.757812 142.238281 149.878906 C 142.1875 149.589844 142.417969 149.324219 142.710938 149.324219 Z M 210.695312 167.300781 L 204.960938 167.300781 C 204.523438 167.300781 204.320312 166.761719 204.644531 166.464844 C 209.386719 162.238281 212.625 156.363281 213.46875 149.746094 C 213.5 149.503906 213.699219 149.324219 213.9375 149.324219 L 230.851562 149.324219 C 231.144531 149.324219 231.371094 149.589844 231.324219 149.878906 C 229.636719 159.757812 221.027344 167.300781 210.695312 167.300781 Z M 231.144531 143.332031 L 214.164062 143.332031 C 213.902344 143.332031 213.6875 143.117188 213.6875 142.851562 L 213.6875 101.867188 C 213.6875 101.601562 213.902344 101.386719 214.164062 101.386719 L 231.144531 101.386719 C 231.410156 101.386719 231.625 101.601562 231.625 101.867188 L 231.625 142.851562 C 231.625 143.117188 231.410156 143.332031 231.144531 143.332031 Z M 231.144531 143.332031 "/></g></g></svg>