<svg width="372" height="372" viewBox="0 0 372 372" fill="none" xmlns="http://www.w3.org/2000/svg">
<rect width="372" height="372" rx="10" fill="#1E3CFF"/>
<path d="M214.517 248.5L149.564 285.999L84.6105 248.5L149.564 211L214.517 248.5Z" fill="white"/>
<path d="M153.171 129.75V204.749C174.822 217.249 196.474 229.749 218.125 242.249V167.25C196.474 154.75 174.822 142.25 153.171 129.75ZM202.897 213.539C199.591 211.634 197.931 210.667 194.626 208.762V189.882C194.626 187.356 194.034 185.076 192.851 183.084C191.667 181.077 189.949 179.417 187.698 178.118C185.431 176.819 183.714 176.487 182.545 177.122C181.375 177.758 180.769 179.345 180.769 181.886V200.765C177.464 198.86 175.804 197.893 172.498 195.988V170.901C170.867 169.963 170.045 169.487 168.414 168.549V159.109C171.762 161.043 173.437 162.01 176.785 163.944V169.588L178.878 170.8C180.048 169.472 181.505 168.78 183.266 168.693C185.027 168.621 187.221 169.328 189.848 170.844C194.005 173.24 197.21 176.415 199.49 180.356C201.771 184.296 202.911 188.468 202.911 192.884V213.539H202.897Z" fill="white"/>
<path d="M81 167.25V242.249C102.651 229.749 124.302 217.249 145.953 204.749V129.75C124.302 142.25 102.651 154.75 81 167.25ZM124.793 170.295C123.638 170.959 123.061 171.291 121.906 171.97C119.308 173.471 117.417 175.405 116.205 177.801C114.992 180.197 114.386 182.766 114.386 185.523V202.959C111.138 204.836 109.507 205.774 106.26 207.65V182.564C104.629 183.502 103.806 183.979 102.175 184.917V175.477C105.524 173.543 107.198 172.576 110.547 170.642V177.426C111.384 176.949 111.802 176.704 112.64 176.213C113.433 173.341 114.704 170.8 116.421 168.621C118.153 166.441 120.088 164.724 122.253 163.468C123.263 162.876 123.783 162.587 124.793 161.996V170.281V170.295Z" fill="white"/>
<path d="M261.224 183.082C259.91 182.403 258.135 182.706 255.912 183.991C253.386 185.449 251.495 187.412 250.225 189.866C248.955 192.319 248.334 195.047 248.334 198.035C248.334 201.023 248.969 203.029 250.225 204.025C251.481 205.021 253.386 204.79 255.912 203.333C258.135 202.048 259.91 200.301 261.224 198.107C262.537 195.913 263.187 193.546 263.187 191.02V187.917C263.187 185.391 262.537 183.774 261.224 183.096V183.082Z" fill="white"/>
<path d="M225.343 167.25V242.249C246.994 229.749 268.645 217.249 290.297 204.749V129.75C268.645 142.25 246.994 154.75 225.343 167.25ZM275.559 199.582C272.211 201.516 270.536 202.483 267.188 204.417V198.773C266.35 199.25 265.932 199.495 265.095 199.986C264.026 202.598 262.612 204.966 260.837 207.102C259.061 209.238 256.91 211.042 254.385 212.5C251.324 214.261 248.726 215.012 246.59 214.752C244.454 214.492 242.823 213.323 241.726 211.259C240.629 209.18 240.08 206.366 240.08 202.801C240.08 199.235 240.614 195.728 241.668 192.408C242.736 189.088 244.281 186.1 246.33 183.445C248.38 180.789 250.819 178.638 253.677 176.978C255.871 175.708 257.762 175.087 259.335 175.116C260.909 175.145 262.136 175.78 263.002 177.007C263.088 176.964 263.117 176.935 263.204 176.892V158.358C266.509 156.453 268.169 155.486 271.475 153.581V192.48C273.106 191.542 273.928 191.066 275.559 190.127V199.567V199.582Z" fill="white"/>
<path d="M286.689 123.5L221.735 160.999L156.782 123.5L221.735 86L286.689 123.5Z" fill="white"/>
</svg>
